# xmcd CD database file
#
# Track frame offsets:
#	150
#	18229
#	35201
#	54786
#	67458
#	96210
#	112391
#	126302
#	141684
#	158318
#	176910
#	199937
#
# Disc length: 2910 seconds
#
# Revision: 0
# Processed by: cddbd v1.5.1PL2 Copyright (c) Steve Scherf et al.
# Submitted via: CDex 1.51
#
DISCID=bb0b5c0c
DTITLE=Rockin' Dopsie JR. - I Got My Mojo Working
DYEAR=1900
DGENRE=Jazz
TTITLE0=I Got My Mojo Working
TTITLE1=You Realy Got A Hold On Me
TTITLE2=Sex Machine
TTITLE3=I've Been Loing You Too Long
TTITLE4=House Of Rising Sun 
TTITLE5=Groove Me
TTITLE6="634 5789"
TTITLE7=On  A Night Like This
TTITLE8=Tramp
TTITLE9=I CAn See Clearly Now 
TTITLE10=Let's Get It On 
TTITLE11=Jambalaya
EXTD=
EXTT0=
EXTT1=
EXTT2=
EXTT3=
EXTT4=
EXTT5=
EXTT6=
EXTT7=
EXTT8=
EXTT9=
EXTT10=
EXTT11=
PLAYORDER=
